/* XPM */
static char *_cb3d2116a2947cea324bf7560c356c8[] = {
/* columns rows colors chars-per-pixel */
"64 64 60 1 ",
"  c #020205",
". c #050205",
"X c #060205",
"o c #060608",
"O c #090608",
"+ c #0A0708",
"@ c #0A0709",
"# c #090909",
"$ c #0C0909",
"% c #0D0A0C",
"& c #0E0D0C",
"* c #0E0C0D",
"= c #110A07",
"- c #100E0F",
"; c #120F0F",
": c #11100E",
"> c #15120F",
", c #120F10",
"< c #131111",
"1 c #151212",
"2 c #1A1712",
"3 c #191614",
"4 c #1B1813",
"5 c #1B1816",
"6 c #1D1A17",
"7 c #1F1C16",
"8 c #1B1A19",
"9 c #1D1A19",
"0 c #1F1D1C",
"q c #201D16",
"w c #211E17",
"e c #251B18",
"r c #201D1A",
"t c #211F1B",
"y c #271C19",
"u c #23201C",
"i c #25221E",
"p c #32271D",
"a c #252220",
"s c #272522",
"d c #282520",
"f c #292621",
"g c #2B2822",
"h c #2B2925",
"j c #2D2A24",
"k c #2D2A26",
"l c #2D2B27",
"z c #312E27",
"x c #35322D",
"c c #36332E",
"v c #3A3731",
"b c #3A3536",
"n c #433524",
"m c #413E37",
"M c #51432E",
"N c #4F4948",
"B c #514E48",
"V c #59564F",
"C c #655F5D",
"Z c #79726F",
/* pixels */
"=z.w.=..1zzVmmzzzzwwzz=.=w=.z1w==z.w.=..1zzVmmzzzzwwzz=.=w=.z1w=",
"wz.w...1wwwVmmzzmwwzwwz=.=w.w.w=wz.w...1wwwVmmzzmwwzwwz=.=w.w.w=",
"w1z.1.1wz11wmZmZwwwzzzzw=.=w.z=ww1z.1.1wz11wmZmZwwwzzzzw=.=w.z=w",
"Zm=w1.wzzwzmVzzzwmmzVmmzz=.ww=zZZm=w1.wzzwzmVzzzwmmzVmmzz=.ww=zZ",
"Zzz..1zzwwzzVmww1wVmzmm1w1.=.wzmZzz..1zzwwzzVmww1wVmzmm1w1.=.wzm",
"Vzw..=w1=1wwVZzw11wzwwzzwz1..wzzVzw..=w1=1wwVZzw11wzwwzzwz1..wzz",
"Vz=...===1wzVmwz11w1w1w11==..1wzVz=...===1wzVmwz11w1w1w11==..1wz",
"mw=.=zzZZVmVVVmmzmmmzw1==..=.1wmmw=.=zzZZVmVVVmmzmmmzw1==..=.1wm",
"w=1.11zmw1111=1wmmzmmzmVmzz.X11ww=1.11zmw1111=1wmmzmmzmVmzz..11w",
"zw1=11w1w11www1wzwzz1wzw1Zm=X1wwzw1=11w1w11www1wzwzz1wzw1Zm=.1ww",
"mz1=wwzwz1wzw1wzzwzzwzw1wmmw=<wzmz1=wwzwz1wzw1wzzwzzwzw1wmmw=1wz",
"Vw1=zwwzzwzwwwwwzmw==ww1zzww=1wmVw1=zwwzzwzwwwwwzmw==ww1zzww=1wm",
"Vz1=11ww11w11wzwwzz11=1wzww1=1wmVz1=11ww11w11wzwwzz11=1wzww1=1wm",
"mz1.=11www111wwwwwwzw1=1ww1=X1wzmz1.=11www111wwwwwwzw1=1ww1=.1wz",
"Vw1.==11====111wwzww11==w1== 1wzVw1.==11====111wwzww11==w1==.1wz",
"ww=..11wz1====11zw1zzmmz== .X11www=..11wz1====11zw1zzmmz== ..11w",
"z=1.zzzVVVVmZVVmmzVmVVmzzz=XX1wwl=1XzzzVVVVmZVVmmzVmVVmzzz=..1ww",
"zw1.=wVzzwzzwzzld5*ub6Ncw->X XXX+=O O>l66wzzwzzmzzwzZzZmw1w=.1wz",
"mz1.wVVzwwmzzzmcu9lu9ucC-...X X ..XX.%u62wmzzzmmzmmzzmmZzw1z.1wm",
"Vz1.zVzw1wzmVmzdwavd5u21....XXXX..X XXX%%wzmVmzzzmmzmzwzzwzw=1wm",
"Vz1.www1=wwzmzVu66B5d4+..y..yyy..yyy..y..wwzmzVzzwVzzwzzw1w1=1wm",
"mw1.=1w1wzwwwzztw-t,1....yyyp.p..p.pyyy....-2l6uw1z1wwzVzw===1wz",
"Vw1.==1wzzz1w=17*-:%.....ypnnpp..ppnnpy....XO=,21111zzZVZzw=.1wm",
"mw=...=zzzww1w1<-w1...yy.ppnnpp..ppnnpp.ye.X..,<1wmmVZzzmww1.1wm",
"111.zwzVZmzzzmmhmt..y.yy.pppn.p..p.nppp.yy.y..OuVmzVVZzwww1z.11w",
"zw1.1w11zzzwwzw8....yypp.nnppnp..pnppnn.ppyy...91ZzzwzmZZzw= 1wz",
"mw1.wwwwwmzwz1z#..y.ynnp.nnpp.p..p.ppnn.pnny.y..1wwwwzzzZmw1.1wm",
"Vz1.w1z1zwwzzw1#.yyyp.nnynMpnnp..pnnpMnynn.pyyy.zwz1zmzwmww1.1wm",
"mz1.1=1=1wwzw1=-Oy.pnnnpypMpnnp..pnnpMpypnnnp.y.1www111www1=.11z",
"Vw1. ..=11w11==-epypn.npypMpn.p..p.npMpypn.npypyO1zmw1wzw1== 1wz",
"mww. wzzmmzw1==*epypn.npyMMnMMn..nMMnMMypn.npypy zmZZVmz1wzz 1wm",
"mww  11zZZmzmzzsypypnMnnyMMnM.n..n.MnMMynnMnpypy zwwwwwwz11  11m",
"z=1XzzzVVVVmZVVhypyynMnnynnpMnn..nnMpnnynnMnyypy zVmVVmzzz=XX1ww",
"zw1 =wVzzwzzuzzupyyynMnnynMnM.n..n.MnMnynnMnyyyp zuzZzZmw1w=X1wz",
"mz1XwVVzwwmzlzm0pyypnyMnynMnMnM..MnMnMnynMynpyyp mvxzmmZzw1zX1wm",
"Vz1XzVzw1wzmVmz#....yMnnynMnM.n..n.MnMnynnMy.... mmzmzwzzwzw=1wm",
"Vz1Xwww1=wwzmzVoypyyyyMnynMnMnM..MnMnMnynMyyyypy wVzzwzzw1w1=1wm",
"mw1X=1w1wzwwwzz yyppppMMynMnMnM..MnMnMnyMMppppyy 1z1wwzVzw===1wz",
"Vw1 ==1wzzz1w=<:ypppn.MMyMM.n.M..M.n.MMyMM.npppy 111zzZVZzw=X1wm",
"mw=XXX=zzzww<u1:pppnMpMMyMMnpnM..MnpnMMyMMpMnppp wmmVZzzmww1 1wm",
"111XzwzVZmzzzmmuyppnM.MMyMM.n.M..M.n.MMyMM.Mnppy mzVVZzwww1zX11w",
"zw1 1w11zzzwwzw8ppynMpMMyMMnpnM..MnpnMMyMMpMnypp ZzzwzmZZzw= 1wz",
"mw1Xwwwwwmzwz1z&ppynMnMMyMMp.pp..pp.pMMyMMnMnypp wwwwzzzZmw1X1wm",
"Vz1Xw1z1zwwzzw1+ppypnnMMyMp...p..p...pMyMMnnpypp wz1zmzwmww1X1wm",
"mz1X1=1=1wwzu1=#ypypnnnMyn.y.y....y.y.nyMnnnpypy www111www1= 11z",
"Vw1X XX=11w1<==oypypnnnMyn.y.p....p.y.nyMnnnpypy 1zmw1wzw1== 1wz",
"mww  wzzmmzw1==XyyyypM.MyM.ppp....ppp.MyM.Mpyyyy zmZZVmz1wzz 1wm",
"mww  11zZZmzmzz1ypyypMnMyM.ppp....ppp.MyMnMpyypy zwwwwwwz11  11m",
"w1  1wwmZmwzzw1#.....ynMyMy...y..y...yMyMny..... =1wzzw1w=w1 Xw1",
"=X1Xw1zzZ1wzmzw#yyyyyMnMyMMyyyy..yyyyMMyMnMyyyyy =wwwwzw11w= 1X=",
"ww1X 11zm11wmmz&ypynn.MnyMMnMnn..nnMnMMynM.nnypy 1wwmzw1wz==X17z",
"mw1X =wwz1=zzzz ypynnnMnyMMnMnn..nnMnMMynMnnnypy 1wzzww11z=1X1wm",
"mzw=  =wz1=1z1w ypypM.MMyMM.n.M..M.n.MMyMM.Mpypy =1www1=w11==wzV",
"Vww=X =111=11=1 ppypMpMMyMMnpnM..MnpnMMyMMpMpypp  11w11w1=X =wzV",
"Vwmw=X 1==1==   ppypMpMMyMMnpnM..MnpnMMyMMpMpypp  =11= X==X=wmmm",
"VVw Xw1wwwzzmmm pyynnnMpynMMn.p..p.nMMnypMnnnyyp zwmwwzzzw=w1wVV",
"111wwz1wzzmzzzz ppypnnMpynnMMMy..yMMMnnypMnnpypp wwzwwwwww=wzw11",
"zmzzzVwzzmVVVmm pyyynnppyMnMn.p..p.nMnMyppnnyyyp VmVVzVmVV=zzzmz",
"wVVVZZw======== pyyypnppyMnMnnn..nnnMnMyppnpyyyp ==========mmVVz",
"=====w=   XX X  ....yyppyMnMpMp..pMpMnMyppyy....  X  X    =z====",
"===1=w= X=1== X yy.yynnpyMnnp.y..y.pnnMypnnyy.yw =XX X=XX =11===",
"====1z=X=w11ww1 pp.ppppp.pppppy..yppppp.ppppp.pp w1ww1w1=X=z11==",
"1111wz=         ..p.....p......pp......p.....pXX          =zw===",
" ======         ..............................X           ======"
};
