/* XPM */
static char *_081036cb7a34f44fa2c0d3c8bb3d295[] = {
/* columns rows colors chars-per-pixel */
"64 64 183 2 ",
"   c #000101",
".  c #00060A",
"X  c #01090D",
"o  c #0A0C0D",
"O  c #030C13",
"+  c #0B0F12",
"@  c #071015",
"#  c #0C1214",
"$  c #07131A",
"%  c #0B151A",
"&  c #111719",
"*  c #12191A",
"=  c #0C1920",
"-  c #161E21",
";  c #072D46",
":  c #072F49",
">  c #07334F",
",  c #09334D",
"<  c #15374C",
"1  c #15384D",
"2  c #093755",
"3  c #0B3B5C",
"4  c #183B50",
"5  c #0E3F60",
"6  c #1E4055",
"7  c #1D465F",
"8  c #25495D",
"9  c #0E4366",
"0  c #0D466B",
"q  c #134463",
"w  c #1C4964",
"e  c #1E4E6A",
"r  c #0C4C74",
"t  c #0E517D",
"y  c #125078",
"u  c #224C65",
"i  c #25516B",
"p  c #29556E",
"a  c #375666",
"s  c #305469",
"d  c #3A5D6F",
"f  c #2D5A75",
"g  c #3C5F71",
"h  c #325F7A",
"j  c #406475",
"k  c #406779",
"l  c #43697B",
"z  c #486E7F",
"x  c #66767B",
"c  c #0F5685",
"v  c #0F5888",
"b  c #115583",
"n  c #195983",
"m  c #1D618C",
"M  c #136396",
"N  c #256185",
"B  c #24658D",
"V  c #28668D",
"C  c #29688E",
"Z  c #316280",
"A  c #366886",
"S  c #2A6A91",
"D  c #256F9E",
"F  c #347194",
"G  c #3D7392",
"H  c #36779E",
"J  c #387598",
"K  c #3C7B9F",
"L  c #1776B5",
"P  c #1A79B7",
"I  c #1A79B8",
"U  c #367BA4",
"Y  c #3B7CA2",
"T  c #307DAC",
"R  c #257DB6",
"E  c #227FBB",
"W  c #4E7180",
"Q  c #4B778C",
"!  c #597881",
"~  c #5C7E88",
"^  c #497E9C",
"/  c #417FA1",
"(  c #558296",
")  c #53839A",
"_  c #5A899F",
"`  c #60828D",
"'  c #74868A",
"]  c #618393",
"[  c #6B8890",
"{  c #6F8F9B",
"}  c #7D9196",
"|  c #4481A4",
" . c #4884A3",
".. c #4585AA",
"X. c #5C8BA1",
"o. c #558FAB",
"O. c #5D94AE",
"+. c #4A8BB0",
"@. c #5B92B0",
"#. c #5698BA",
"$. c #6A90A2",
"%. c #6192A8",
"&. c #779CAD",
"*. c #659AB3",
"=. c #659DB9",
"-. c #689EB8",
";. c #67A2BB",
":. c #6CA2BB",
">. c #7BA5B1",
",. c #7DA9B6",
"<. c #71A2BB",
"1. c #7AA6BB",
"2. c #7FADBB",
"3. c #348BC1",
"4. c #3A8EC3",
"5. c #3D91C4",
"6. c #4294C6",
"7. c #4997C6",
"8. c #4A99C9",
"9. c #529AC3",
"0. c #519FCB",
"q. c #53A0CC",
"w. c #5BA5CE",
"e. c #5FA6D0",
"r. c #5FA8D0",
"t. c #60A2C3",
"y. c #60A7CF",
"u. c #76ABC3",
"i. c #73ADCC",
"p. c #78AEC8",
"a. c #7DB4CC",
"s. c #63AAD1",
"d. c #6AAFD3",
"f. c #6DB1D4",
"g. c #75B5D6",
"h. c #78B5D6",
"j. c #7CBBD6",
"k. c #77B7D9",
"l. c #77B9D8",
"z. c #79B9D8",
"x. c #80A3AF",
"c. c #83B1BF",
"v. c #91B2BB",
"b. c #9DB4BB",
"n. c #8DB3C2",
"m. c #87B8C7",
"M. c #80B5CD",
"N. c #90B5C3",
"B. c #91B9C8",
"V. c #82B4D4",
"C. c #8CBFD5",
"Z. c #82BEDC",
"A. c #A3BCC3",
"S. c #85C2DD",
"D. c #8AC5DE",
"F. c #91C6DC",
"G. c #B0CCD3",
"H. c #8AC7E0",
"J. c #8DC9E0",
"K. c #90C7E1",
"L. c #94CBE2",
"P. c #99CCE4",
"I. c #97D0E4",
"U. c #9ED5E6",
"Y. c #A2D3E6",
"T. c #ABD3E3",
"R. c #A5D6E8",
"E. c #AAD7EA",
"W. c #A1D8E8",
"Q. c #ABDBEB",
"!. c #B3D9E6",
"~. c #B1DEED",
"^. c #BADEEC",
"/. c #B4E1EE",
"(. c #B8E2EF",
"). c #BAE5F1",
"_. c #C1E7F3",
"`. c #C4EAF4",
"'. c #CDEEF7",
"]. c #D0F0F8",
"[. c #E3F3F7",
"{. c #F2F6F6",
"}. c #980088",
/* pixels */
"}.}.}.}.}.}.}.}.}.}.}.}.}.}.}.}.}.}.}.}.}.}.}.}.}.}.}.}.}.}.}.}.}.}.}.}.}.}.}.}.}.}.}.}.}.}.}.}.}.}.}.}.}.}.}.}.}.}.}.}.}.}.}.}.",
"}.}.}.}.}.}.}.}.}.}.}.}.}.}.}.}.}.}.}.}.}.}.}.}.}.}.}.}.}.}.}.}.}.}.}.}.}.}.}.}.}.}.}.}.}.}.}.}.}.}.}.}.}.}.}.}.}.}.}.}.}.}.}.}.",
"}.}.}.}.}.}.}.}.}.}.}.}.}.}.}.}.}.}.}.}.}.}.}.}.}.}.}.}.}.}.}.}.}.}.}.}.}.}.}.}.}.}.}.}.}.}.}.}.}.}.}.}.}.}.}.}.}.}.}.}.}.}.}.}.",
"}.}.}.}.}.}.}.}.}.}.}.}.}.}.}.}.}.}.}.}.}.}.}.}.}.}.}.}.}.}.}.}.}.}.}.}.}.}.}.}.}.}.}.}.}.}.}.}.}.}.}.}.}.}.}.}.}.}.}.}.}.}.}.}.",
"}.}.}.}.}.}.}.}.}.}.}.}.}.}.}.}.}.}.}.}.}.}.}.}.}.}.}.}.}.}.}.}.}.}.}.}.}.}.}.}.}.}.}.}.}.}.}.}.}.}.}.}.}.}.}.}.}.}.}.}.}.}.}.}.",
"}.}.}.}.}.}.}.}.}.}.}.}.}.}.}.}.}.}.}.}.}.}.}.}.}.}.}.}.}.}.}.}.}.}.}.}.}.}.}.}.}.}.}.}.}.}.}.}.}.}.}.}.}.}.}.}.}.}.}.}.}.}.}.}.",
"}.}.}.}.}.}.}.}.}.}.}.}.}.}.}.}.}.}.}.}.}.}.}.}.}.}.}.}.}.}.}.}.}.}.}.}.}.}.}.}.}.}.}.}.}.}.}.}.}.}.}.}.}.}.}.}.}.}.}.}.}.}.}.}.",
"}.}.}.}.}.}.}.}.}.}.}.}.}.}.}.}.}.}.}.}.}.}.}.}.}.}.}.}.}.}.}.}.}.}.}.}.}.}.}.}.}.}.}.}.}.}.}.}.}.}.}.}.}.}.}.}.}.}.}.}.}.}.}.}.",
"}.}.}.}.}.}.}.}.}.}.}.}.}.}.}.}.}.}.}.}.}.}.}.}.}.}.}.}.}.}.}.}.}.}.}.}.}.}.}.}.}.}.}.}.}.}.}.}.}.}.}.}.}.}.}.}.}.}.}.}.}.}.}.}.",
"}.}.}.}.}.}.}.}.}.}.}.}.}.}.}.}.}.}.}.}.}.}.}.}.}.}.}.}.}.}.}.}.}.}.}.}.}.}.}.}.}.}.}.}.}.}.}.}.}.}.}.}.}.}.}.}.}.}.}.}.}.}.}.}.",
"}.}.}.}.}.}.}.}.}.}.}.}.}.}.}.}.}.}.}.}.}.}.}.}.}.}.}.}.}.}.}.}.}.}.}.}.}.}.}.}.}.}.}.}.}.}.}.}.}.}.}.}.}.}.}.}.}.}.}.}.}.}.}.}.",
"}.}.}.}.}.}.}.}.}.}.}.}.}.}.}.}.}.}.}.}.}.}.}.}.}.}.}.}.}.}.}.}.}.}.}.}.}.}.}.}.}.}.}.}.}.}.}.}.}.}.}.}.}.}.}.}.}.}.}.}.}.}.}.}.",
"}.}.}.}.}.}.}.}.}.}.}.}.}.}.}.}.}.}.}.}.}.}.}.}.}.}.}.}.}.                    }.}.}.}.}.}.}.}.}.}.}.}.}.}.}.}.}.}.}.}.}.}.}.}.}.",
"}.}.}.}.}.}.}.}.}.}.}.}.}.}.}.}.}.}.}.}.}.}.}.}.}.}.}.}.}.X X X X O @ X X X X . }.}.}.}.}.}.}.}.}.}.}.}.}.}.}.}.}.}.}.}.}.}.}.}.",
"}.}.}.}.}.}.}.}.}.}.}.}.}.}.}.}.}.}.}.}.}.}.}.}.}.      . 3 v B S Y +.H S m v ;       }.}.}.}.}.}.}.}.}.}.}.}.}.}.}.}.}.}.}.}.}.",
"}.}.}.}.}.}.}.}.}.}.}.}.}.}.}.}.}.}.}.}.}.}.}.}.}.X . O $ n E 5.0.d.z.s.0.3.E q @ X . . }.}.}.}.}.}.}.}.}.}.}.}.}.}.}.}.}.}.}.}.",
"}.}.}.}.}.}.}.}.}.}.}.}.}.}.}.}.}.}.}.}.}.}.}.  . 7 C o.:.C.P.R.E././.~.Q.Y.P.a.:. .C <   }.}.}.}.}.}.}.}.}.}.}.}.}.}.}.}.}.}.}.",
"}.}.}.}.}.}.}.}.}.}.}.}.}.}.}.}.}.}.}.}.}.}.}.O @ G 0.H.Q.).].].].].].].].].'.(.W.z.0.p X X }.}.}.}.}.}.}.}.}.}.}.}.}.}.}.}.}.}.",
"}.}.}.}.}.}.}.}.}.}.}.}.}.}.}.}.}.}.}.}.}.  . h ..D.E._.`.'.].].].].].].].].].'.`.(.E.p...u   }.}.}.}.}.}.}.}.}.}.}.}.}.}.}.}.}.",
"}.}.}.}.}.}.}.}.}.}.}.}.}.}.}.}.}.}.}.}.}.X @ _ j.(.].].].].].].].`.`.'.].].].'.`.'.].R.j.j . . }.}.}.}.}.}.}.}.}.}.}.}.}.}.}.}.",
"}.}.}.}.}.}.}.}.}.}.}.}.}.}.}.}.}.}.}.  . h  .F.~.`.].].].].].].].S.w.K.(.`.].K.w.H.(./.~.:.N 1   }.}.}.}.}.}.}.}.}.}.}.}.}.}.}.",
"}.}.}.}.}.}.}.}.}.}.}.}.}.}.}.}.}.}.}.  . X.j.^.].].].].].].].].'.s.E d.U.(.].g.E s.U.(.].J.8.p     }.}.}.}.}.}.}.}.}.}.}.}.}.}.",
"}.}.}.}.}.}.}.}.}.}.}.}.}.}.}.}.}.}.}.  o >.~.`.].].].].].].].].'.^.T.k.0.P.].^.T.j.0.K.].E.Z.l     }.}.}.}.}.}.}.}.}.}.}.}.}.}.",
"}.}.}.}.}.}.}.}.}.}.}.}.}.}.}.}.}.}.}.X + b.].].].].].].].].].].].[.{.i.L Z.].[.{.V.L f.].).R.! .   }.}.}.}.}.}.}.}.}.}.}.}.}.}.",
"}.}.}.}.}.}.}.}.}.}.}.}.}.}.}.}.}.  o z %.!.].].].].].].].].].].'.P.h.A > &.].Y.h.G , $.].`.`.<.r :   }.}.}.}.}.}.}.}.}.}.}.}.}.",
"}.}.}.}.}.}.}.}.}.}.}.}.}.}.}.}.}.  o >.W.`.].].].].].].].].].].'.e.I ,   ' ].g.P 3   x ].].].j.P 0     }.}.}.}.}.}.}.}.}.}.}.}.",
"}.}.}.}.}.}.}.}.}.}.}.}.}.}.}.}.}.  o v.).`.].].].].].].].].].'.'.g.4.4   ' ].Z.4.7   x ].].].L.0.f     }.}.}.}.}.}.}.}.}.}.}.}.",
"}.}.}.}.}.}.}.}.}.}.}.}.}.}.}.}.}.. + b.].].].].].].].].].'.'.'.'.k.7.4 . ' ].Z.8.u   x ].'.].R.k.l     }.}.}.}.}.}.}.}.}.}.}.}.",
"}.}.}.}.}.}.}.}.}.}.}.}.}.}.}.  o l X.!.].].].].].].].].].Q.U.p.=.i.k.J 0 1.].Y.l.| 0 F =.a.U.I.D.W     }.}.}.}.}.}.}.}.}.}.}.}.",
"}.}.}.}.}.}.}.}.}.}.}.}.}.}.}.  o ,.W.`.].].].].].].].].'.L.l.F r ;.U.0.I Z.].(.W.w.P M r / j.D.U.~ . . }.}.}.}.}.}.}.}.}.}.}.}.",
"}.}.}.}.}.}.}.}.}.}.}.}.}.}.}.  + v.(.`.].].].].].].].].'.L.h.t.#.F.~.K.z.E.]._./.L.j.a.u.S.R.R.W.a.( a   }.}.}.}.}.}.}.}.}.}.}.",
"}.}.}.}.}.}.}.}.}.}.}.}.}.}.}.. & A.].].].].].].].].].].'.L.z.J.W.).'.].].].].].'.'.'.'.'.'.'.(.W.W.U.`     }.}.}.}.}.}.}.}.}.}.",
"}.}.}.}.}.}.}.}.}.}.}.}.}.  # j _ !.].].].].].].].].].].'.Q.W.S.k.U.~._.].].].U.l.Y.'.].].].].~.S.I./.[     }.}.}.}.}.}.}.}.}.}.",
"}.}.}.}.}.}.}.}.}.}.}.}.}.  # c.W.`.].].].].].].].].].].].'.'.l.8.j.W.).].].].f.I k.].].].].'.R.k.P.'.}     }.}.}.}.}.}.}.}.}.}.",
"}.}.}.}.}.}.}.}.}.      $ k ( Y.~.`.].].].].].].].].].].].].].Q.L.k.d.R.].].].Y.f.W.].].].`./.S.7.k./.[     }.}.}.}.}.}.}.}.}.}.",
"}.}.}.}.}.}.}.}.}.      & c.W.`.].].].].].].].].].].].].].].].].'.e.I Z.].].].].'.'.].].'.(.W.s.I q.U.`     }.}.}.}.}.}.}.}.}.}.",
"}.}.}.}.}.}.}.  % k Q ] { T./.`.].].].].].].].].].].].].].].].).~.0.I Z.].].].].].].].`./.U.D.q.I T ( a   }.}.}.}.}.}.}.}.}.}.}.",
"}.}.}.}.}.}.}.  * m.W.`.'.].].].].].].].].].].].].].].].].].].~.W.8.I Z.'.].'.'.].].'.).W.J.l.8.I 0 . . }.}.}.}.}.}.}.}.}.}.}.}.",
"}.}.}.}.}.}.}.  & u.J.`.].].].].].].].].].].].].].].].].].).~.S.d.q.6.H./././././././.Q.W.S.w.5.I 0     }.}.}.}.}.}.}.}.}.}.}.}.",
"}.}.}.}.}.}.}.  % -.Z.`.].].].].].].].].].].].].].].].].].~.U.8.I q.k.J.U.W.W.R.U.W.W.W.U.l.7.3.L 0     }.}.}.}.}.}.}.}.}.}.}.}.",
"}.}.}.}.}.}.}.  $ Z ^ ^.].].].].'.(./././.`.].].].].].].].W.S.0.3.e.l.S.D.H.D.L.W.W.W.I.D.s.4.D 0 ;   }.}.}.}.}.}.}.}.}.}.}.}.}.",
"}.}.}.}.}.}.}.}.}.. - G.].'.'.].].E.W.W.W._.].].].].].'.'.L.k.w.8.s.l.l.j.z.k.K.W.U.W.H.l.8.I 9 . . }.}.}.}.}.}.}.}.}.}.}.}.}.}.",
"}.}.}.}.}.}.}.}.}.  & B.E././././.W.W.W.W._.].].].].]._./.z.e.s.s.f.k.z.l.k.l.Z.D.H.H.l.e.U r ;   }.}.}.}.}.}.}.}.}.}.}.}.}.}.}.",
"}.}.}.}.}.}.}.}.}.  # -.j.U.W.W.W.W.W.W.W.`.].].].].'./.U.d.7.s.z.k.z.z.z.k.z.j.l.j.l.r.7.i   . }.}.}.}.}.}.}.}.}.}.}.}.}.}.}.}.",
"}.}.}.}.}.}.}.}.}.  $ A | j.H.U.W.W.W.W.W.`.].].].].'.P.j.w.7.d.z.k.z.z.l.h.k.z.z.l.l.w.5.u     }.}.}.}.}.}.}.}.}.}.}.}.}.}.}.}.",
"}.}.}.}.}.}.}.}.}.}.}.X = *.z.I.W.W.W.W.W.`.].].].].'.f.8.8.8.s.z.z.z.k.l.z.l.k.z.z.l.8.I 5     }.}.}.}.}.}.}.}.}.}.}.}.}.}.}.}.",
"}.}.}.}.}.}.}.}.}.}.}.  # A | O.*.j.S.D.J.).].].'.(.Q.r.5.q.s.f.l.z.z.l.z.k.z.k.l.h.z...t ;   }.}.}.}.}.}.}.}.}.}.}.}.}.}.}.}.}.",
"}.}.}.}.}.}.}.}.}.}.}.}.}.X X o = H 0.f.j.(.].].'.L.z.4.I w.z.h.k.z.k.z.z.l.z.j.z.l.z.g . . }.}.}.}.}.}.}.}.}.}.}.}.}.}.}.}.}.}.",
"}.}.}.}.}.}.}.}.}.}.}.}.}.      X e V K ..1.N.N.n.@.| E I 8.s.f.j.z.z.z.l.z.z.l.z.f.s.s     }.}.}.}.}.}.}.}.}.}.}.}.}.}.}.}.}.}.",
"}.}.}.}.}.}.}.}.}.}.}.}.}.}.}.}.}.. . X X # # # # X O b L 4.8.d.k.k.l.z.k.z.k.z.z.y.8.u     }.}.}.}.}.}.}.}.}.}.}.}.}.}.}.}.}.}.",
"}.}.}.}.}.}.}.}.}.}.}.}.}.}.}.}.}.                  . 3 v m C Y ..9.w.s.s.f.l.k.k.+.C <   }.}.}.}.}.}.}.}.}.}.}.}.}.}.}.}.}.}.}.",
"}.}.}.}.}.}.}.}.}.}.}.}.}.}.}.}.}.}.}.}.}.}.}.}.}.}.}.X . . X X O y I 3.7.s.l.k.j.g . . }.}.}.}.}.}.}.}.}.}.}.}.}.}.}.}.}.}.}.}.",
"}.}.}.}.}.}.}.}.}.}.}.}.}.}.}.}.}.}.}.}.}.}.}.}.}.}.}.          . 2 v m S Y +.+.+.u   }.}.}.}.}.}.}.}.}.}.}.}.}.}.}.}.}.}.}.}.}.",
"}.}.}.}.}.}.}.}.}.}.}.}.}.}.}.}.}.}.}.}.}.}.}.}.}.}.}.}.}.}.}.}.}.X X X X X O @ O X }.}.}.}.}.}.}.}.}.}.}.}.}.}.}.}.}.}.}.}.}.}.",
"}.}.}.}.}.}.}.}.}.}.}.}.}.}.}.}.}.}.}.}.}.}.}.}.}.}.}.}.}.}.}.}.}.                }.}.}.}.}.}.}.}.}.}.}.}.}.}.}.}.}.}.}.}.}.}.}.",
"}.}.}.}.}.}.}.}.}.}.}.}.}.}.}.}.}.}.}.}.}.}.}.}.}.}.}.}.}.}.}.}.}.}.}.}.}.}.}.}.}.}.}.}.}.}.}.}.}.}.}.}.}.}.}.}.}.}.}.}.}.}.}.}.",
"}.}.}.}.}.}.}.}.}.}.}.}.}.}.}.}.}.}.}.}.}.}.}.}.}.}.}.}.}.}.}.}.}.}.}.}.}.}.}.}.}.}.}.}.}.}.}.}.}.}.}.}.}.}.}.}.}.}.}.}.}.}.}.}.",
"}.}.}.}.}.}.}.}.}.}.}.}.}.}.}.}.}.}.}.}.}.}.}.}.}.}.}.}.}.}.}.}.}.}.}.}.}.}.}.}.}.}.}.}.}.}.}.}.}.}.}.}.}.}.}.}.}.}.}.}.}.}.}.}.",
"}.}.}.}.}.}.}.}.}.}.}.}.}.}.}.}.}.}.}.}.}.}.}.}.}.}.}.}.}.}.}.}.}.}.}.}.}.}.}.}.}.}.}.}.}.}.}.}.}.}.}.}.}.}.}.}.}.}.}.}.}.}.}.}.",
"}.}.}.}.}.}.}.}.}.}.}.}.}.}.}.}.}.}.}.}.}.}.}.}.}.}.}.}.}.}.}.}.}.}.}.}.}.}.}.}.}.}.}.}.}.}.}.}.}.}.}.}.}.}.}.}.}.}.}.}.}.}.}.}.",
"}.}.}.}.}.}.}.}.}.}.}.}.}.}.}.}.}.}.}.}.}.}.}.}.}.}.}.}.}.}.}.}.}.}.}.}.}.}.}.}.}.}.}.}.}.}.}.}.}.}.}.}.}.}.}.}.}.}.}.}.}.}.}.}.",
"}.}.}.}.}.}.}.}.}.}.}.}.}.}.}.}.}.}.}.}.}.}.}.}.}.}.}.}.}.}.}.}.}.}.}.}.}.}.}.}.}.}.}.}.}.}.}.}.}.}.}.}.}.}.}.}.}.}.}.}.}.}.}.}.",
"}.}.}.}.}.}.}.}.}.}.}.}.}.}.}.}.}.}.}.}.}.}.}.}.}.}.}.}.}.}.}.}.}.}.}.}.}.}.}.}.}.}.}.}.}.}.}.}.}.}.}.}.}.}.}.}.}.}.}.}.}.}.}.}.",
"}.}.}.}.}.}.}.}.}.}.}.}.}.}.}.}.}.}.}.}.}.}.}.}.}.}.}.}.}.}.}.}.}.}.}.}.}.}.}.}.}.}.}.}.}.}.}.}.}.}.}.}.}.}.}.}.}.}.}.}.}.}.}.}."
};
