/* XPM */
static char *_ce308b36381498efae81da6ed40149f[] = {
/* columns rows colors chars-per-pixel */
"64 64 25 1 ",
"  c black",
". c #020202",
"X c #040404",
"o c #060606",
"O c gray3",
"+ c gray4",
"@ c #0B0B0B",
"# c gray5",
"$ c gray6",
"% c #111111",
"& c #131313",
"* c #151515",
"= c gray9",
"- c gray10",
"; c gray11",
": c #1E1E1E",
"> c #202020",
", c gray14",
"< c gray15",
"1 c #282828",
"2 c gray16",
"3 c gray17",
"4 c #2D2D2D",
"5 c #2F2F2F",
"6 c #313131",
/* pixels */
"$*$+<+$$%+*,++%$$*$+<o$$%+*<++%$$*$+<o$$%+*<++%$$*$+<+$$%+*,++%$",
"$2<<%+$%+.o,%-22%2<<%+$*+.o,%;22$2<<%+%%+.+;%-22$2<<%+$%+.o,%-22",
"6;$$2<$o$o$2,*++6;$$2<$o+o$2,%++6;%$22$o+o$2<*++6;$$2<$o$o$2,*++",
"2+++o+<4o$2.$o$%2+++o+<4+$2.$o$%2+++o+<4+$2.$.$%2+++o+<4o$2.$o$%",
"2$$++.%.,<+%.+%$2+$++.$.,,+%.$%$2$$++.$.<,+%.$%$2$$++.%.<<+%.+%$",
",+%++$++++22+.oo,+%+++++++22+.oo<+%+++++++22+.+.<+%++$++++22+.oo",
"<<$.+*$-2<+o4,%<<,$.+-$-2<+o4,%<<,%.+*$;2<+o4<%<<,$.+*$-2<+o4,%<",
"$+2+$,-$++++,$++$$2+$,-$++++<++++$2+$,-$++++,+++$+2+$,-$++o+<$++",
"%%;2*o$o++.4%+$%%%;2*o$o++o2%+$%$%;2*o$o++o4%+$%%%;2*o$o++.4%+$%",
"o2$%2+%++<2$+2o%o2$$2+%++<2$+2o%o2$%2+%++<<$+2o%o2$%2+%++<2$+2o%",
"24+..2+%2o*+%$2%24+..2+%2o%$*$2*24+..2+%2o%+*$2%24+..2+$2o*+%$2%",
"o$<$%$,$+++o%+,$o$<$%$<$+++o%+;$o$<$%$<$+++o$+,$o$<$%$<%+++o%+,$",
"*+2%*o%6.*$$+.2+*+2%*o%4.*$%+.2o*+2%*o%6.*$$o.2+*+2%%o%4.*$%+.2+",
"*.$<<*%2+o$+++++*.$<<-%2+o$+++$+*.$<<*%2++$+++++*.$<<*%4++$+++++",
"*++4++o+2<o$o2;$*+$4o+o+2,+++2;$*++4++o+2<o++2;$*++4++o+2<o++2;$",
",<<++%++$$<,%*o<,,<++%++$$<,%%o<,,<++%++$$2,%%+<,<<++%++$$<,$%+<",
"$*$+<o$$%+*<++%$$*$+<+$$%+*<++%$$*$+<o$%%+%,++%$$*$+<+$$%+*,++%$",
"$2,<%+%%+.+;%-22$2,<%o$%+.+;%-22$2,<%+$%+.+,%;22$2,<%+$%+.o,%-22",
"6;%$22$o+o$2<*++6;%$22$o+o$2<*++6;$$22$o+o$2,*++6;$$2<$o$o$2,*++",
"2+++o+<4+$2.$.$%2+$+o+<4+$2.$.$%2+++o+<4+$2.$.$%2+++o+<4o$2.$o$%",
"4+$++.%.<,+%.$%$2$$++.$.<,+%.$%$4+%++.$.,,+%.$$$2$$++.%.,<+%.+%$",
"<+%+++++++22+.+.<+%+++++++22+.+.,+%++$++++22+.oo<+%++$++++22+.oo",
"<,%.+*$-2<+o4<%<<,%.+*$;2<+o4<%<<,$.+*$-2<+o4<%<<,$.+*$-2<+o4,%<",
"+$2+%,-$++++,++++$2+$,-$++++,+++$$2+$<-$++++<+++$+2+$,-$++++,$++",
"$%;2*o$o++o4%+$%$%;2*o$o++o4%+$%$$;2*o$o++o4%+$%%%;2*o$o++.4%+$%",
"o2$%2+%++<<$+2o%o2$%2+%++<<$+2o%o2+$2+%++<2$+2o%o2$%2+%++<2$+2o%",
"24+..2+%2o%+*$2%24+..2+%2o%+*$2%24$..2+%<o%+*$2%24+..2+%2o*+%$2%",
"o$<$%$<$+++o$+,$o$<$%$<$+++o$+,$o$<$%$,%$++o%+,+o$<$%$,$+++o%+,$",
"*+2%*o%6.*$$o.2+*+2%*o%6.*$$o.2+*+2%*o%6.*$%o.2+*+2%*o%6.*$$+.2+",
"*.$<<*%2++$+++++*.$<<*%2++$+++++*.$<<*%2+o$+++$+*.$<<*%2+o$+++++",
"*++4++o+2<o++2;$*++4++o+2<o++2;$*++4++o$2<o++2;$*++4++o+2<o$o2;$",
",,<++%++$$2,%%+<,,<++%++$$2,%%+<,<<++%o+$$2,%%o,,<<++%++$$<,%*o<",
"$*$+<o$%%+*,++%$$*$+<o$%%+%,++%$$*$+<o$$%+*<++%$$*$+<+$$%+*,++%$",
"$2,<%+$%+.o,%;22$2,<%+$%+.+,%;22$2,<%+%%+.+;%-22$2<<%+$%+.o,%-22",
"6;$$22$o$o$2,*++6;$$22$o+o$2,*++6;%$22$o+o$2<*++6;$$2<$o$o$2,*++",
"2+++o+<4o$2.$.$%2+++o+<4+$2.$.$%2+++o+<4+$2.$.$%2+++o+<4o$2.$o$%",
"2$$++.$.,,+%.$$$2$$++.$.,,+%.$$$4+$++.%.<,+%.$%$2$$++.%.<<+%.+%$",
"<+%++$++++22+.oo<+%++$++++22+.oo<+%+++++++22+.+.<+%++$++++22+.oo",
"<,$.+*$-2<+o4<%<<,$.+*$-2<+o4<%<<,%.+*$-2<+o4<%<<,$.+*$-2<+o4,%<",
"$$2+$<-$++++<+++$$2+$<-$++++<++++$2+%,-$++++,+++$+2+$,-$++o+<$++",
"$$-2*o$o++o2%+$%$$-2*o$o++o4%+$%$%;2*o$o++o4%+$%%%;2*o$o++.4%+$%",
"o2$$2+%++<2$+2o%o2$$2+%++<2$+2o%o2$%2+%++<<$+2o%o2$%2+%++<2$+2o%",
"24+..2+%2o*+*%2%24+..2+%<o%+*$2%24+..2+%2o%+*$2%24+..2+$2o*+%$2%",
"o$<$%$<%+++o%+,+o$<$%$<%$++o%+,+o$<$%$<$+++o$+,$o$<$%$<%+++o%+,$",
"*+2%*o%4.%$%o.2+*+2%*o%4.*$%+.2+*+2%*o%6.*$$o.2+*+2%%o%4.*$%+.2+",
"*.$<<*%4$o$+++$+*.$<<*%4+o$+++++*.$<<*%2++$+++++*.$<<*%4++$+++++",
"*++4++o+2<o++2;$*++4++o+2<o++2;$*++4++o+2<o++2;$*++4++o+2<o++2;$",
",<<++%++$%<,%%o,,<<++%++$$2,%%o<,,<++%++$$2,%%+<,<<++%++$$<,$%+<",
"$*$+<+$$%+*,++%$$*$+<o$$%+*<++%$$*$+<o$%%+%,++%$$*$+<+$$%+*,++%$",
"$2,<%+$%+.o,%-22%2<<%+$*+.o,%;22$2,<%+$%+.+,%;22$2,<%+$%+.o,%-22",
"6;$$2<$o$o$2,*++6;$$2<$o+o$2,%++6;$$22$o+o$2,*++6;$$2<$o$o$2,*++",
"2+++o+<4o$2.$o$%2+++o+<4+$2.$o$%2+++o+<4+$2.$.$%2+++o+<4o$2.$o$%",
"2$$++.$.<<+%.$$$2+$++.$.,,+%.$%$4+%++.$.,,+%.$$$2$$++.%.,<+%.+%$",
",+%+++++++22+.+.,+%+++++++22+.oo,+%++$++++22+.oo<+%++$++++22+.oo",
"<<$.$*$-2<+o4<%<<,$.+-$-2<+o4,%<<,$.+*$-2<+o4<%<<,$.+*$-2<+o4,%<",
"$+2+$,-$++o+<+++$$2+$,-$++++<+++$$2+$<-$++++<+++$+2+$,-$++++,$++",
"%%;2*o$o++.4%+$%%%;2*o$o++o2%+$%$$;2*o$o++o4%+$%%%;2*o$o++.4%+$%",
"o2$$2+%++<2$+2o%o2$$2+%++<2$+2o%o2+$2+%++<2$+2o%o2$%2+%++<2$+2o%",
"24+..2+%2o*+%$2%24+..2+%<o%$*$2*24$..2+%<o%+*$2%24+..2+%2o*+%$2%",
"o$<$%$<$+++o%+,$o$<$%$<$$++o%+;$o$<$%$,%$++o%+,+o$<$%$,$+++o%+,$",
"*+2%*o%6.*$%+.2+*+2%*o%4.*$%+.2o*+2%*o%6.*$%o.2+*+2%*o%6.*$$+.2+",
"*.$<<*%2++$+++++*.$<<-%2+o$+++$+*.$<<*%2+o$+++$+*.$<<*%2+o$+++++",
"*++4++o+2<+++2;$*+$4o+o+2<+++2;$*++4++o$2<o++2;$*++4++o+2<o$o2;$",
"<<<++%o+$$2;%%+<,,<++%++$%2;%%o,,<<++%o+$$2,%%o,,<<++%++$$<,%*o<"
};
