/* XPM */
static char *_41420b2e6434f4da45962443b7fc2af[] = {
/* columns rows colors chars-per-pixel */
"64 64 17 1 ",
"  c #010103",
". c #020205",
"X c #050205",
"o c #050305",
"O c #0E0C0C",
"+ c #110A07",
"@ c #17120F",
"# c #151212",
"$ c #211E17",
"% c #241F1C",
"& c #312E27",
"* c #312C29",
"= c #413E37",
"- c #433D3B",
"; c #59564F",
": c #645950",
"> c #79726F",
/* pixels */
"+&X$X+XX#&&;==&&&&$$&&+X+$+X&#$++&X$X+XX#&&;==&&&&$$&&+X+$+X&#$+",
"$&X$XXX#$$$;==&&=$$&$$&+X+$X$X$+$&X$XXX#$$$;==&&=$$&$$&+X+$X$X$+",
"$#&X#X#$&##$=>=>$$$&&&&$+X+$X&+$$#&X#X#$&##$=>=>$$$&&&&$+X+$X&+$",
">=+$#X$&&$&=;&&&$==&;==&&+X$$+&>>=+$#X$&&$&=;&&&$==&;==&&+X$$+&>",
">&&XX#&&$$&&;=$$#$;=&==#$#X+X$&=>&&XX#&&$$&&;=$$#$;=&==#$#X+X$&=",
";&$XX+$#+#$$;>&$##$&$$&&$&#XX$&&;&$XX+$#+#$$;>&$##$&$$&&$&#XX$&&",
";&+XXX+++#$&;=$&##$#$#$##++XX#$&;&+XXX+++#$&;=$&##$#$#$##++XX#$&",
"=$+X+&&>>;=;;;==&===&$#++XX+X#$==$+X+&&>>;=;;;==&===&$#++XX+X#$=",
"$+#X##&=$####+#$==&==&=;=&&XX##$$+#X##&=$#%**%@@@@@%*:*;=&&XX##$",
"&$#+##$#$##$$$#$&$&&#$&$#>=+X#$$&$#+##$#$#%*@O   OO@%*-$#>=+X#$$",
"=&#+$$&$&#$&$#$&&$&&$&$#$==$+#$&=&#+$$&$&#*@@     OO@%*#$==$+#$&",
";$#+&$$&&$&$$$$$&=$++$$#&&$$+#$=;$#+&$$&&$%O  OOOO  @%%#&&$$+#$=",
";&#+##$$##$##$&$$&&##+#$&$$#+#$=;&#+##$$##@O OO  OO O%%$&$$#+#$=",
"=&#X+##$$$###$$$$$$&$#+#$$#+X#$&=&#X+##$$$@O O    O  @%#$$#+X#$&",
";$#X++##++++###$$&$$##++$#++X#$&;$#X++##++@  O    O  @%+$#++X#$&",
"$$+XX##$&#++++##&$#&&==&++.XX##$$$+XX##$&#@  O    O  @%&++.XX##$",
"&+#X&&&;;;;=>;;==&;=;;=&&&+XX#$$&+#X&&&;;;@          @%&&&+XX#$$",
"&$#X+$;&&$&&$&&=&&$&>&>=$#$+X#$&&$#X+$;&&$@          @*=$#$+X#$&",
"=&#X$;;&$$=&&&==&==&&==>&$#&X#$==&#X$;;&$$@          @%>&$#&X#$=",
";&#X&;&$#$&=;=&&&==&=&$&&$&$+#$=;&#X&;&$#$@          @%&&$&$+#$=",
";&#X$$$#+$$&=&;&&$;&&$&&$#$#+#$=;&#X$$$#+$@          @%&$#$#+#$=",
"=$#X+#$#$&$$$&&&$#&#$$&;&$+++#$&=$#X+#$#$&@          @%;&$+++#$&",
";$#X++#$&&&#$+#$####&&>;>&$+X#$=;$#X++#$&&@          @%;>&$+X#$=",
"=$+XXX+&&&$$#$###$==;>&&=$$#X#$==$+XXX+&&&@          @%&=$$#X#$=",
"###X&$&;>=&&&===;=&;;>&$$$#&X##$###X&$&;>=@          @%$$$#&X##$",
"&$#X#$##&&&$$&$=#>&&$&=>>&$+.#$&&$#X#$##&&@          @%>>&$+.#$&",
"=$#X$$$$$=&$&#&$#$$$$&&&>=$#X#$==$#X$$$$$=@X         @%&>=$#X#$=",
";&#X$#&#&$$&&$#$&$&#&=&$=$$#X#$=;&#X$#&#&$@O       OO@%$=$$#X#$=",
"=&#X#+#+#$$&$#+$&$$$###$$$#+X##&=&#X#+#+#$%OOOO@OOOOO@%$$$#+X##&",
";$#X.XX+##$##++###&=$#$&$#++.#$&;$#X.XX+##%@@@@@@@@@@@%&$#++.#$&",
"=$$X.$&&==&$#++#$&=>>;=&#$&&.#$==$$X.$&&==@@@@@@@@@@@@%&#$&&.#$=",
"=$$..##&>>=&=&&=&&$$$$$$&##..##==$$..##&>>=&=&&=&&$$$$$$&##..##=",
"&+#X&&&;;;;=>;;==&;=;;=&&&+XX#$$&+#X&&&;;;;=>;;==&;=;;=&&&+XX#$$",
"&$#X+$;&&$&&$&&=&&$&>&>=$#$+X#$&&$#X+$;&&$&&$&&=&&$&>&>=$#$+X#$&",
"=&#X$;;&$$=&&&==&==&&==>&$#&X#$==&#X$;;&$$=&&&==&==&&==>&$#&X#$=",
";&#X&;&$#$&=;=&&&==&=&$&&$&$+#$=;&#X&;&$#$&=;=&&&==&=&$&&$&$+#$=",
";&#X$$$#+$$&=&;&&$;&&$&&$#$#+#$=;&#X$$$#+$$&=&;&&$;&&$&&$#$#+#$=",
"=$#X+#$#$&$$$&&&$#&#$$&;&$+++#$&=$#X+#$#$&$$$&&&$#&#$$&;&$+++#$&",
";$#X++#$&&&#$+#$####&&>;>&$+X#$=;$#X++#$&&&#$+#$####&&>;>&$+X#$=",
"=$+XXX+&&&$$#$###$==;>&&=$$#X#$==$+XXX+&&&$$#$###$==;>&&=$$#X#$=",
"###X&$&;>=&&&===;=&;;>&$$$#&X##$###X&$&;>=&&&===;=&;;>&$$$#&X##$",
"&$#X#$##&&&$$&$=#>&&$&=>>&$+.#$&&$#X#$##&&&$$&$=#>&&$&=>>&$+.#$&",
"=$#X$$$$$=&$&#&$#$$$$&&&>=$#X#$==$#X$$$$$=&$&#&$#$$$$&&&>=$#X#$=",
";&#X$#&#&$$&&$#$&$&#&=&$=$$#X#$=;&#X$#&#&$$&&$#$&$&#&=&$=$$#X#$=",
"=&#X#+#+#$$&$#+$&$$$###$$$#+X##&=&#X#+#+#$$&$#+$&$$$###$$$#+X##&",
";$#X.XX+##$##++###&=$#$&$#++.#$&;$#X.XX+##$##++###&=$#$&$#++.#$&",
"=$$X.$&&==&$#++#$&=>>;=&#$&&.#$==$$X.$&&==&$#++#$&=>>;=&#$&&.#$=",
"=$$..##&>>=&=&&=&&$$$$$$&##..##==$$..##&>>=&=&&=&&$$$$$$&##..##=",
"$#X.#$$=>=$&&$#$#+#$&&$#$+$#.X$#$#X.#$$=>=$&&$#$#+#$&&$#$+$#.X$#",
"+X#X$#&&>#$&=&$$#+$$$$&$##$+.#X++X#X$#&&>#$&=&$$#+$$$$&$##$+.#X+",
"$$#X.##&=##$==&$##$$=&$#$&++X#$&$$#X.##&=##$==&$##$$=&$#$&++X#$&",
"=$#X.+$$&#+&&&&$+#$&&$$##&+#X#$==$#X.+$$&#+&&&&$+#$&&$$##&+#X#$=",
"=&$+X.+$&#+#&#$$#+#$$$#+$##++$&;=&$+X.+$&#+#&#$$#+#$$$#+$##++$&;",
";$$+X.+###+##+##+.##$##$#+XX+$&;;$$+X.+###+##+##+.##$##$#+XX+$&;",
";$=$+X.#++#++..+..+##+.X++X+$===;$=$+X.#++#++..+..+##+.X++X+$===",
";;$.X$#$$$&&====&&$=$$&&&$+$#$;;;;$.X$#$$$&&====&&$=$$&&&$+$#$;;",
"###$$&#$&&=&&&&=&$$&$$$$$$+$&$#####$$&#$&&=&&&&=&$$&$$$$$$+$&$##",
"&=&&&;$&&=;;;==;;;=;;&;=;;+&&&=&&=&&&;$&&=;;;==;;;=;;&;=;;+&&&=&",
"$;;;>>$++++++++++++++++++++==;;&$;;;>>$++++++++++++++++++++==;;&",
"+++++$+..XXX.X.X..XX.X....+&+++++++++$+..XXX.X.X..XX.X....+&++++",
"+++#+$+.X+#++XX+X+XXXX+XX.+##++++++#+$+.X+#++XX+X+XXXX+XX.+##+++",
"++++#&+X+$##$$###$#$$#$#+X+&##++++++#&+X+$##$$###$#$$#$#+X+&##++",
"####$&+...................+&$+++####$&+...................+&$+++",
"X++++++...................++++++X++++++...................++++++"
};
